<?xml version="1.0" standalone="no"?>
<!DOCTYPE svg PUBLIC "-//W3C//DTD SVG 20010904//EN"
 "http://www.w3.org/TR/2001/REC-SVG-20010904/DTD/svg10.dtd">
<svg version="1.0" xmlns="http://www.w3.org/2000/svg"
 width="1271.000000pt" height="1280.000000pt" viewBox="0 0 1271.000000 1280.000000"
 preserveAspectRatio="xMidYMid meet">
<metadata>
Created by potrace 1.15, written by Peter Selinger 2001-2017
</metadata>
<g transform="translate(0.000000,1280.000000) scale(0.100000,-0.100000)"
fill="#000000" stroke="none">
<path d="M6227 10843 c-4 -3 -4 -23 -1 -45 l7 -38 -73 0 -72 0 6 -32 c15 -89
16 -145 3 -284 -20 -217 -5 -299 71 -377 80 -83 165 -104 437 -109 l190 -3 9
38 10 37 63 0 c35 0 63 2 63 4 0 2 12 59 26 127 51 247 66 430 41 492 -31 74
-131 132 -279 163 -124 26 -483 46 -501 27z"/>
<path d="M8035 10802 l7 -41 -67 -3 -66 -3 -6 -210 c-9 -357 -9 -345 19 -406
68 -149 199 -194 542 -187 l139 3 12 35 c12 35 13 35 71 35 l58 0 13 55 c24
101 61 334 68 420 9 108 -3 154 -52 202 -91 88 -244 126 -542 135 l-203 6 7
-41z"/>
<path d="M7710 9644 c-320 -66 -570 -139 -700 -204 -32 -16 -109 -63 -172
-103 -263 -172 -432 -354 -1113 -1206 -800 -1001 -1394 -1791 -1799 -2394
l-120 -177 -340 2 c-363 3 -416 -1 -595 -48 -245 -64 -558 -268 -685 -448 -79
-111 -176 -330 -156 -350 6 -6 44 6 97 32 249 116 539 168 990 179 236 5 273
4 273 -9 0 -8 -65 -122 -143 -254 -493 -822 -742 -1420 -764 -1836 -11 -193
40 -300 165 -349 78 -31 240 -31 363 -1 134 33 612 209 627 232 8 10 43 29 78
40 35 12 64 26 64 30 0 5 -18 37 -39 70 -41 63 -75 154 -85 228 -8 56 10 241
34 364 42 202 124 451 243 732 61 145 323 670 342 686 9 7 198 7 667 -1 805
-15 1212 -3 1788 51 165 15 197 16 206 5 6 -8 18 -63 28 -122 57 -355 150
-788 231 -1078 223 -796 478 -1196 800 -1256 150 -28 355 48 630 232 106 71
308 245 313 270 1 8 -24 34 -59 59 -164 120 -332 356 -449 635 -107 251 -189
553 -295 1080 -246 1221 -355 2321 -342 3463 6 537 28 830 101 1312 13 85 21
158 19 163 -6 11 -23 8 -203 -29z m-1031 -2197 c28 -516 84 -1126 157 -1701
14 -110 21 -203 17 -207 -12 -11 -261 -27 -608 -40 -302 -11 -1047 -7 -1417 7
l-167 7 71 136 c251 477 533 915 932 1446 181 242 309 402 665 838 l326 399 7
-337 c3 -185 11 -431 17 -548z"/>
</g>
</svg>
