<?xml version="1.0" standalone="no"?>
<!DOCTYPE svg PUBLIC "-//W3C//DTD SVG 20010904//EN"
 "http://www.w3.org/TR/2001/REC-SVG-20010904/DTD/svg10.dtd">
<svg version="1.0" xmlns="http://www.w3.org/2000/svg"
 width="1245.000000pt" height="1280.000000pt" viewBox="0 0 1245.000000 1280.000000"
 preserveAspectRatio="xMidYMid meet">
<metadata>
Created by potrace 1.15, written by Peter Selinger 2001-2017
</metadata>
<g transform="translate(0.000000,1280.000000) scale(0.100000,-0.100000)"
fill="#000000" stroke="none">
<path d="M10055 12400 c-167 -43 -557 -201 -809 -328 -535 -268 -742 -469
-866 -840 -30 -91 -73 -252 -84 -312 -3 -19 -8 -46 -11 -60 -28 -140 -56 -333
-80 -550 -9 -74 -20 -173 -26 -220 -18 -153 -29 -262 -45 -435 -8 -93 -19
-215 -24 -270 -24 -256 -44 -509 -65 -815 -46 -667 -52 -780 -66 -1160 -6
-184 -13 -341 -15 -349 -5 -15 7 -15 -284 13 -228 22 -253 24 -390 36 -320 26
-636 47 -880 60 -107 6 -274 15 -370 20 -96 5 -236 12 -310 15 -74 4 -209 11
-300 16 -257 16 -1733 23 -2015 10 -482 -23 -833 -60 -1100 -116 -101 -22 -97
-24 -91 43 18 186 32 405 56 862 5 96 11 220 14 275 11 201 45 1129 45 1235 0
8 4 321 8 695 4 374 5 788 0 920 -9 293 -7 255 -18 350 -53 449 -130 688 -258
808 -67 63 -110 80 -201 80 -92 0 -151 -18 -296 -88 -201 -98 -387 -231 -680
-486 -226 -198 -276 -279 -244 -400 11 -42 51 -87 154 -178 86 -76 165 -332
196 -636 40 -386 46 -720 30 -1490 -26 -1247 -51 -1803 -99 -2200 -6 -44 -13
-102 -16 -130 -3 -27 -19 -79 -36 -115 -53 -114 -110 -189 -270 -356 -59 -62
-124 -138 -145 -170 -119 -185 -111 -374 19 -423 67 -26 145 -11 271 49 35 16
69 30 75 30 21 0 14 -151 -38 -835 -6 -71 -15 -186 -21 -255 -5 -69 -12 -152
-15 -185 -8 -97 -25 -310 -35 -440 -5 -66 -14 -172 -20 -235 -6 -63 -17 -200
-25 -305 -9 -104 -20 -242 -26 -305 -5 -63 -14 -164 -19 -225 -5 -60 -14 -168
-20 -240 -5 -71 -12 -157 -15 -190 -3 -33 -10 -123 -15 -200 -6 -77 -15 -196
-21 -265 -5 -69 -14 -183 -20 -255 -17 -224 -23 -776 -9 -879 23 -173 66 -290
127 -348 108 -103 254 -88 544 57 420 208 795 487 885 657 41 78 25 176 -38
235 -93 87 -113 111 -144 178 -50 109 -68 252 -61 495 6 187 25 546 47 848 5
78 14 204 20 280 37 520 51 704 90 1152 6 69 13 152 15 185 15 181 32 382 55
625 6 63 17 198 25 300 23 287 31 345 51 386 42 86 140 116 459 143 249 21
683 34 940 27 304 -8 729 -23 865 -31 206 -12 421 -26 540 -35 115 -9 216 -15
695 -40 94 -5 217 -11 275 -14 197 -11 535 -27 770 -36 571 -24 1124 -60 1163
-75 17 -7 18 -17 13 -109 -25 -406 -34 -2287 -14 -2861 7 -216 31 -596 42
-700 17 -141 66 -402 96 -500 50 -169 68 -222 98 -295 94 -229 196 -392 340
-542 147 -152 305 -247 492 -294 150 -37 458 -18 748 47 268 59 635 172 817
249 11 5 66 27 122 49 475 188 968 460 1311 724 119 92 183 170 248 302 75
156 92 262 53 343 -30 61 -70 84 -139 80 -46 -3 -75 -15 -170 -69 -469 -264
-1001 -452 -1427 -503 -29 -4 -53 -5 -53 -2 0 2 20 37 45 76 134 219 210 545
189 819 -4 59 -7 110 -6 114 1 4 -2 36 -8 70 -6 34 -13 73 -15 87 -30 193 -94
389 -186 575 -167 338 -422 565 -694 616 -79 15 -247 6 -305 -16 -127 -49
-206 -95 -285 -168 l-50 -46 -6 87 c-9 130 -23 1751 -15 1793 l6 36 168 6
c333 12 540 32 802 77 501 87 945 242 1215 423 193 130 283 221 306 311 39
156 -118 242 -341 185 -74 -18 -436 -39 -689 -39 -543 0 -1362 50 -1391 85
-23 27 -3 621 40 1195 5 74 17 227 25 340 16 212 27 342 45 518 5 56 14 146
20 200 25 251 36 347 49 457 10 78 14 107 46 345 13 102 30 209 66 415 6 33
12 65 13 70 2 6 6 28 10 50 4 22 11 54 16 70 19 67 62 212 70 235 5 14 28 79
50 145 23 66 48 134 55 150 8 17 28 64 45 105 56 130 139 285 213 397 57 86
108 145 257 293 174 173 187 188 199 237 10 41 10 59 0 93 -34 112 -162 155
-334 110z"/>
</g>
</svg>
