<?xml version="1.0" standalone="no"?>
<!DOCTYPE svg PUBLIC "-//W3C//DTD SVG 20010904//EN"
 "http://www.w3.org/TR/2001/REC-SVG-20010904/DTD/svg10.dtd">
<svg version="1.0" xmlns="http://www.w3.org/2000/svg"
 width="1280.000000pt" height="1280.000000pt" viewBox="0 0 1280.000000 1280.000000"
 preserveAspectRatio="xMidYMid meet">
<metadata>
Created by potrace 1.15, written by Peter Selinger 2001-2017
</metadata>
<g transform="translate(0.000000,1280.000000) scale(0.100000,-0.100000)"
fill="#000000" stroke="none">
<path d="M8289 10816 l-936 -11 -42 -28 c-85 -57 -78 60 -86 -1439 l-8 -1328
-61 -1 c-33 -1 -70 -3 -81 -4 -11 -1 -119 -5 -240 -9 -308 -9 -1032 -34 -1202
-41 l-143 -6 -1 158 c-1 87 -4 662 -8 1278 -5 866 -10 1127 -20 1150 -15 36
-57 82 -92 100 -14 8 -147 42 -295 76 l-269 62 -220 -1 c-1603 -13 -2415 -25
-2443 -34 -47 -14 -99 -63 -112 -104 -9 -27 -9 -130 -1 -432 6 -219 18 -629
26 -912 8 -283 17 -598 20 -700 3 -102 14 -500 25 -885 18 -654 29 -1044 80
-2840 11 -385 29 -1026 40 -1425 11 -399 22 -772 24 -830 5 -105 5 -106 155
-540 83 -239 159 -446 169 -460 10 -14 38 -36 62 -49 l44 -24 260 21 c245 21
701 59 1371 117 160 14 471 40 692 59 436 38 441 39 490 103 l28 37 0 1615 0
1616 800 47 c440 26 820 47 844 47 l44 1 -7 -1150 c-5 -972 -4 -1155 8 -1182
12 -29 546 -637 690 -786 90 -94 90 -94 448 -62 122 11 648 56 1168 100 520
44 962 83 984 86 47 7 111 62 125 107 11 36 13 94 41 1092 33 1140 59 2068 65
2255 3 96 12 409 20 695 26 921 88 3062 109 3770 7 268 9 443 3 465 -14 52
-45 90 -91 111 -29 12 -179 34 -513 73 l-472 56 -278 -2 c-153 -1 -699 -6
-1214 -12z"/>
</g>
</svg>
