<?xml version="1.0" encoding="iso-8859-1"?>
<!-- Uploaded to: SVG Repo, www.svgrepo.com, Generator: SVG Repo Mixer Tools -->
<svg version="1.1" id="Layer_1" xmlns="http://www.w3.org/2000/svg" xmlns:xlink="http://www.w3.org/1999/xlink" 
	 viewBox="0 0 512 512" xml:space="preserve">
<path style="fill:#88888F;" d="M256,467.2c-116.456,0-211.2-94.744-211.2-211.2S139.544,44.8,256,44.8S467.2,139.544,467.2,256
	S372.456,467.2,256,467.2z M256,83.2c-95.282,0-172.8,77.518-172.8,172.8S160.718,428.8,256,428.8S428.8,351.283,428.8,256
	S351.283,83.2,256,83.2z"/>
<path style="fill:#272729;" d="M256,44.8v38.4c95.283,0,172.8,77.518,172.8,172.8S351.283,428.8,256,428.8v38.4
	c116.456,0,211.2-94.744,211.2-211.2S372.456,44.8,256,44.8z"/>
<path style="fill:#FF4F19;" d="M256,332.8l74.519-74.519c15.163-15.163,15.163-39.747,0-54.908
	c-15.163-15.163-39.747-15.163-54.909,0L256,222.982l-19.611-19.61c-15.163-15.163-39.747-15.163-54.908,0
	c-15.163,15.163-15.163,39.747,0,54.908L256,332.8z"/>
<g>
	<rect x="236.8" style="fill:#56545A;" width="38.4" height="115.2"/>
	<rect y="236.8" style="fill:#56545A;" width="115.2" height="38.4"/>
	<rect x="236.8" y="396.8" style="fill:#56545A;" width="38.4" height="115.2"/>
	<rect x="396.8" y="236.8" style="fill:#56545A;" width="115.2" height="38.4"/>
</g>
<path style="fill:#AF2E08;" d="M330.519,203.372c-15.163-15.163-39.745-15.163-54.908,0L256,222.982V332.8l74.519-74.519
	C345.682,243.118,345.682,218.534,330.519,203.372z"/>
</svg>